PathFileType  4	(X/Y/Z) C:\Users\antoi\Documents\MyRepositories\mobilecap\ResultsAnalysis
DataRate	CameraRate	NumFrames	NumMarkers	Units	OrigDataRate	OrigDataStartFrame	OrigNumFrames
100.0	100.0	4	51	mm	100.0	1156	1321
Frame#	Time	r_knee			r_shank_antsup			r_ankle			r_calc			r_5meta			r_toe			L_knee			L_shank_antsup			L_ankle			L_calc			L_5meta			L_toe			r_sh2			r_sh3			r_sh4			L_sh2			L_sh3			r_thigh1			r_thigh2			r_thigh3			r_thigh4			r_thigh5			L_thigh1			L_thigh2			L_thigh3			L_thigh4			r.ASIS			r.PSIS			L.ASIS			L.PSIS			C7			R_Shoulder			L_Shoulder			R_Sternum			L_Sternum			R_humerus			R_elbow_med			R_elbow_lat			R_forearm			R_wrist_radius			R_wrist_ulna			L_humerus			L_elbow_med			L_elbow_lat			L_forearm			L_wrist_radius			L_wrist_ulna			R_HJC			L_HJC			R_HJC_reg			L_HJC_reg			
		X1	Y1	Z1	X2	Y2	Z2	X3	Y3	Z3	X4	Y4	Z4	X5	Y5	Z5	X6	Y6	Z6	X7	Y7	Z7	X8	Y8	Z8	X9	Y9	Z9	X10	Y10	Z10	X11	Y11	Z11	X12	Y12	Z12	X13	Y13	Z13	X14	Y14	Z14	X15	Y15	Z15	X16	Y16	Z16	X17	Y17	Z17	X18	Y18	Z18	X19	Y19	Z19	X20	Y20	Z20	X21	Y21	Z21	X22	Y22	Z22	X23	Y23	Z23	X24	Y24	Z24	X25	Y25	Z25	X26	Y26	Z26	X27	Y27	Z27	X28	Y28	Z28	X29	Y29	Z29	X30	Y30	Z30	X31	Y31	Z31	X32	Y32	Z32	X33	Y33	Z33	X34	Y34	Z34	X35	Y35	Z35	X36	Y36	Z36	X37	Y37	Z37	X38	Y38	Z38	X39	Y39	Z39	X40	Y40	Z40	X41	Y41	Z41	X42	Y42	Z42	X43	Y43	Z43	X44	Y44	Z44	X45	Y45	Z45	X46	Y46	Z46	X47	Y47	Z47	X48	Y48	Z48	X49	Y49	Z49	X50	Y50	Z50	X51	Y51	Z51	

1156	11.55000000	-132.82168	424.42564	-373.84879	-93.33857	356.08986	-379.25367	-278.04843	81.59131	-425.06614	-333.38072	54.94264	-474.49833	-174.15128	41.12608	-397.45466	-134.77072	57.76654	-449.65825	-131.09028	439.38936	-751.73829	-102.23775	346.30783	-761.17719	-273.64929	96.97611	-788.71249	-333.68822	55.42549	-745.14035	-180.32795	45.29317	-830.83963	-126.61789	61.83248	-780.37238	-148.76318	256.42735	-385.29783	-155.05119	387.48322	-347.34499	-217.05066	290.19484	-353.89324	-172.29573	397.53435	-783.61044	-227.00157	290.52281	-805.60839	-272.55044	627.34632	-316.04728	-189.86699	552.42128	-331.69982	-265.16132	475.23272	-364.48870	-351.90843	551.24650	-340.09954	-221.03828	490.45034	-335.84006	-299.02143	661.85401	-732.40423	-196.53381	568.42399	-741.07810	-378.70987	581.90596	-722.79074	-274.30159	488.23186	-720.61489	-282.24111	736.85206	-408.12605	-449.54561	850.37423	-479.10644	-282.68615	729.97672	-618.32156	-449.22500	844.55657	-560.07390	-126.94659	1154.79290	-495.69301	-77.27979	1109.62834	-366.03574	-71.14022	1113.08789	-622.73441	-38.70529	1049.09960	-476.22017	-39.76399	1046.46717	-499.59831	-20.96172	1043.29290	-302.72342	54.37433	841.47235	-268.80506	79.13598	888.11578	-220.43063	150.54731	939.91537	-255.97816	261.13081	980.70646	-331.65104	282.36771	953.64008	-314.16747	-19.26044	1056.78486	-698.09263	89.52858	862.33301	-726.24794	103.62628	914.67950	-768.52016	195.77806	952.89498	-728.30839	295.51406	981.01984	-656.31000	314.52398	951.67880	-676.87781	-390.94594	693.13351	-406.65068	-390.57645	687.70244	-614.08653	-373.18722	712.22471	-435.16110	-372.63871	702.27691	-573.60640	
1157	11.56000000	-130.81441	423.50159	-373.32039	-91.40573	354.99336	-379.05530	-277.88095	81.68603	-425.04235	-333.31758	55.05714	-474.56697	-174.11455	41.13349	-397.44786	-134.67250	57.66747	-449.61677	-129.55717	438.41652	-751.79641	-100.75933	345.31533	-761.23480	-273.49466	97.04871	-788.64282	-333.62981	55.39986	-744.98631	-180.31554	45.30416	-830.83718	-126.62215	61.69473	-780.32632	-147.30878	255.57118	-385.43842	-152.90004	386.55663	-347.14212	-215.55931	289.52480	-354.00451	-170.60080	396.78265	-783.41213	-226.03648	289.80026	-805.31632	-274.29141	624.22818	-315.35196	-190.35058	550.09656	-331.55654	-263.94920	472.19679	-364.92988	-352.08442	546.32620	-340.45301	-220.09615	487.46410	-336.02450	-300.62506	658.35780	-732.60846	-196.88939	566.37084	-740.94765	-379.21266	577.38512	-723.30552	-273.45933	485.14348	-721.05930	-283.65416	730.71415	-408.16898	-450.49197	845.11030	-479.67482	-284.37642	723.60741	-619.00662	-449.89505	839.36716	-560.59885	-124.21775	1145.71497	-496.26325	-74.74725	1100.52688	-366.91780	-68.86175	1103.73072	-623.05413	-36.93419	1039.26685	-476.79263	-38.04238	1036.67911	-500.16475	-18.33089	1034.60203	-303.52970	57.55721	832.91583	-268.53971	82.07088	879.90763	-220.79289	153.07377	932.14043	-256.70767	263.16697	973.68617	-332.61488	284.65292	946.81532	-315.14744	-16.96321	1047.54619	-698.32412	92.52051	853.48053	-726.17361	106.48377	905.98266	-768.61843	198.23876	944.71481	-728.09963	297.60846	973.44906	-655.94242	316.77779	944.17193	-676.39138	-392.73356	687.67133	-406.99959	-392.40842	682.01405	-614.42978	-375.21797	706.10424	-435.65496	-374.19284	696.24802	-574.53432	
1158	11.57000000	-128.85363	422.46168	-372.92275	-89.46327	353.93255	-378.90215	-277.76688	81.71336	-425.10139	-333.24135	55.17008	-474.61128	-174.07380	41.14902	-397.46624	-134.55373	57.60184	-449.59796	-128.03313	437.53755	-751.97081	-99.29838	344.27584	-761.21319	-273.35153	97.12960	-788.59427	-333.58719	55.37945	-744.85632	-180.30093	45.30248	-830.83142	-126.61118	61.58443	-780.32182	-145.87093	254.72906	-385.56367	-150.90366	385.62039	-347.08595	-213.80267	288.79852	-354.12167	-168.87460	396.01280	-783.44668	-224.77182	289.35952	-805.55481	-275.85415	620.74157	-314.93637	-190.53389	548.05516	-331.33709	-262.95025	468.95211	-365.39870	-352.22226	541.47765	-340.61146	-219.01225	484.31219	-336.28963	-302.04537	655.07176	-732.77216	-197.15854	564.58276	-741.00402	-379.62812	573.09016	-723.99657	-272.63596	482.26836	-721.63309	-285.00166	724.50311	-408.38919	-451.30777	839.74453	-480.17398	-286.02053	717.49350	-620.15425	-450.51959	834.14256	-561.10426	-121.60401	1136.65757	-496.77810	-72.29294	1091.47279	-367.68920	-66.55890	1094.40604	-623.46952	-35.21181	1029.73117	-477.42406	-36.53792	1026.82103	-500.43177	-15.79199	1025.95755	-304.32884	60.48181	824.73535	-269.02548	85.00639	871.81912	-221.14482	155.56499	924.39050	-257.38449	265.10494	966.68377	-333.60301	286.88326	939.92988	-316.13960	-14.72215	1038.34183	-698.54268	95.36444	844.78392	-726.24944	109.19864	897.29348	-768.75575	200.56893	936.57739	-727.89583	299.58505	965.95103	-655.54257	318.94055	936.65107	-675.74331	-394.32525	682.01470	-407.64276	-394.16453	676.49883	-615.07675	-377.13639	699.93460	-436.29560	-375.77819	690.27869	-575.79836	
1159	11.58000000	-126.98921	421.25841	-372.76044	-87.60280	352.80413	-378.93198	-277.65140	81.84320	-425.20104	-333.13612	55.30463	-474.66604	-174.04720	41.15942	-397.47302	-134.46680	57.52908	-449.60215	-126.49592	436.72625	-752.18151	-97.78526	343.21330	-761.20107	-273.19549	97.19690	-788.53879	-333.55262	55.40968	-744.78371	-180.27984	45.27466	-830.83387	-126.56102	61.48118	-780.36830	-144.52320	253.82671	-385.70312	-148.90470	384.82623	-347.02987	-212.08395	288.24017	-354.05598	-167.09793	395.25921	-783.68036	-223.36252	289.01322	-805.95886	-277.19673	617.03349	-315.04514	-190.73685	545.87562	-331.18200	-262.01765	465.53027	-365.56028	-352.37788	536.71445	-340.57635	-218.10804	481.32179	-336.50203	-303.32662	652.01247	-732.90685	-197.18777	563.05105	-741.30198	-379.93085	569.00514	-724.86201	-271.82872	479.58972	-722.22090	-286.28044	718.19392	-408.90772	-451.95573	834.22784	-480.48761	-287.49736	711.45193	-621.21645	-451.10703	828.82462	-561.42695	-119.10869	1127.67245	-497.38795	-69.93907	1082.34851	-368.42364	-64.24762	1085.10022	-623.93321	-33.60800	1020.03051	-477.92766	-34.81805	1017.25964	-501.31397	-13.32383	1017.29446	-305.18054	63.23220	816.69321	-269.65814	87.95209	863.84187	-221.52343	158.05075	916.72052	-257.92542	267.02112	959.68189	-334.60273	289.08057	932.95435	-317.23104	-12.48696	1029.24258	-698.73334	98.05727	836.11734	-726.29156	111.74057	888.50680	-768.67727	202.79300	928.41954	-727.72886	301.48843	958.45394	-655.20724	321.07743	929.08422	-675.11499	-395.71271	676.15438	-408.34731	-395.79519	671.01767	-615.79096	-378.73620	693.79058	-437.04603	-377.26962	684.45276	-576.92370	
